<svg width="371" height="134" xmlns="http://www.w3.org/2000/svg" xmlns:svg="http://www.w3.org/2000/svg" preserveAspectRatio="xMidYMid meet">
 <g class="layer">
  <title>logo</title>
  <rect fill="none" height="136" id="canvas_background" width="373" x="-1" y="-1"/>
 </g>
 <g class="layer">
  <title>Logo</title>
  <g fill="#0a45a3" id="logo" transform="translate(0 134) scale(0.1 -0.1)">
   <!-- A (done!) ~~~~~~~~~~~~~~~~~~~~~~~~~~~~~~~~~~~~~~~~~~~~~~~~~~~~~~~~~~~~~~~~~~~~~~~~~~~~~~~~~~~~~~~~~~~~~~~~~~~~~~~~~~~~~~~~~~~~~~~~~~~~~-->
   <path d="m185,1310 l-55,-160 h 320 l-55, 160 z" id="atop"/>
   <path d="m125,1130 h 160 l-65,-190 h -160z" id="amidleft"/>
   <path d="m455,1130 h-160 l 65, -190 h 160z" id="amidright"/>
   <path d="m55, 920 h 470 l 45, -160 h -190 l-25,75 h-135 l-25,-75 h-190z" id="alower"/>
   <!-- N (done!)~~~~~~~~~~~~~~~~~~~~~~~~~~~~~~~~~~~~~~~~~~~~~~~~~~~~~~~~~~~~~~~~~~~~~~~~~~~~~~~~~~~~~~~~~~~~~~~~~~~~~~~~~~~~~~~~~~~~~~~~~~~~~-->
   <path d="m600,1310 h180 l150, -160 h-330z" id="ntopleft"/>
   <path d="m950,1310 h 190 v -160 h-190z" id="ntopright"/>
   <path d="m600,1130 h 540 v-190 h-540z" id="nmid"/>
   <path d="m600, 920 v -160 h 180 v160z" id="nleftlower"/>
   <path d="m800, 920 h 340 v-160 h-190z" id="nrightlower"/>
   <!-- G (done!)~~~~~~~~~~~~~~~~~~~~~~~~~~~~~~~~~~~~~~~~~~~~~~~~~~~~~~~~~~~~~~~~~~~~~~~~~~~~~~~~~~~~~~~~~~~~~~~~~~~~~~~~~~~~~~~~~~~~~~~~~~~~~-->
   
   <path d="m1200, 1150 c80,230 430,230 510 0 h-200 c-20,20 -90,20 -110 0 z" id="gtop"/>
   <path d="m1190, 1130h 205 c -50,-50 -50,-140 0 -190 h-205 c -25,60 -25,130 0 190" id="gmidleft"/>
   <path d="m1470,1080 h 240 v -140 h-240z" id="gmidright"/>
   <path d="m1200, 920 c80,-230 430,-230 510 0 h-200 c-20,-20 -90,-20 -110 0 z" id="glower"/>
   <!-- O (done!)~~~~~~~~~~~~~~~~~~~~~~~~~~~~~~~~~~~~~~~~~~~~~~~~~~~~~~~~~~~~~~~~~~~~~~~~~~~~~~~~~~~~~~~~~~~~~~~~~~~~~~~~~~~~~~~~~~~~~~~~~~~~~-->
   
   <path d="m1780, 1150 c80,235 450,235 530 0 z" id="otop"/>
   <path d="m1775, 1130h 215 c -50,-50 -50,-140 0 -190 h-215 c -25,60 -25,130 0 190" id="omidleft"/>
   <path d="m2100,1130 c 50,-50 50,-140 0 -190 h215 c 25,60 25,130 0 190 h-215" id="omidright"/>
   <path d="m1780,920 c80,-235 450,-235 530 0z" id="olower"/>
   <!-- T1 (done!)~~~~~~~~~~~~~~~~~~~~~~~~~~~~~~~~~~~~~~~~~~~~~~~~~~~~~~~~~~~~~~~~~~~~~~~~~~~~~~~~~~~~~~~~~~~~~~~~~~~~~~~~~~~~~~~~~~~~~~~~~~~~~-->
   <path d="m2340,1310 h420 v-160 h-420z" id="t1top"/>
   <path d="m2450,1130 h 190 v-190 h-190z" id="t1mid"/>
   <path d="m2450,920 h190 v-160 h-190z" id="t1lower"/>
   <!-- T2 (done!)~~~~~~~~~~~~~~~~~~~~~~~~~~~~~~~~~~~~~~~~~~~~~~~~~~~~~~~~~~~~~~~~~~~~~~~~~~~~~~~~~~~~~~~~~~~~~~~~~~~~~~~~~~~~~~~~~~~~~~~~~~~~~-->
   <path d="m2800,1310 h420 v-160 h-420zz" id="t2top"/>
   <path d="m2910,1130 h 190 v-190 h-190z" id="t2mid"/>
   <path d="m2910,920 h190 v-160 h-190z" id="t2lower"/>
   <!-- I (done!)~~~~~~~~~~~~~~~~~~~~~~~~~~~~~~~~~~~~~~~~~~~~~~~~~~~~~~~~~~~~~~~~~~~~~~~~~~~~~~~~~~~~~~~~~~~~~~~~~~~~~~~~~~~~~~~~~~~~~~~~~~~~~-->
   <path d="m3260,1310 h 180 v-160 h-180z" id="itop"/>
   <path d="m3260,1130 h 180 v-190 h -180z" id="imid"/>
   <path d="m3260,920 h180 v-160 h-180z" id="ilower"/>
   <!-- & ~~~~~~~~~~~~~~~~~~~~~~~~~~~~~~~~~~~~~~~~~~~~~~~~~~~~~~~~~~~~~~~~~~~~~~~~~~~~~~~~~~~~~~~~~~~~~~~~~~~~~~~~~~~~~~~~~~~~~~~~~~~~~-->
   <!--horizontal guides
    <path d="m0,700 h10000" stroke="red"/>
    <path d="m0,550 h10000" stroke="red"/>
    <path d="m0,530 h10000" stroke="red"/>
    <path d="m0,340 h10000" stroke="red"/>
    <path d="m0,320 h10000" stroke="red"/>
    <path d="m0,160 h10000" stroke="red"/>

    vert guides
    <path d="m1180,0 v10000" stroke="red"/>
    <path d="m1360,0 v10000" stroke="red"/>
    <path d="m1460,0 v10000" stroke="red"/>
    <path d="m1660,0 v10000" stroke="red"/>
    -->
     

   <path d="m721,686c-51,-17 -89,-49 -107,-93c-26,-60 -22,-63 65,-63c75,0 79,1 85,24c8,33 54,51 90,35c14,-7 29,-23 32,-36c6,-21 11,-23 76,-23l71,0l-6,37c-13,81 -78,124 -191,130c-43,2 -88,-3 -115,-11z" id="andtop"/>
   <path d="m607,493c3,-10 15,-28 27,-41c19,-22 20,-24 3,-33c-9,-6 -24,-23 -32,-39l-16,-30l88,0c62,1 94,5 107,15c11,8 30,15 43,15c21,0 23,4 23,59l0,58l-37,7c-21,3 -77,6 -125,6c-79,0 -87,-2 -81,-17z" id="andmidleft"/>
   <path d="m880,435c0,-30 5,-55 10,-55c6,0 10,-7 10,-15c0,-12 16,-15 80,-15c64,0 80,3 80,15c0,8 7,15 15,15c12,0 15,13 15,55l0,55l-105,0l-105,0l0,-55z" id="andmidright"/>
   <path d="m590,325c0,-15 33,-81 48,-98c67,-74 251,-86 344,-24c32,22 77,89 78,115c0,8 -23,12 -81,12c-75,0 -83,-2 -101,-25c-14,-18 -29,-25 -53,-25c-24,0 -39,7 -53,25c-18,23 -26,25 -101,25c-45,0 -81,-2 -81,-5z" id="andbottom"/>
   <!-- R (done)~~~~~~~~~~~~~~~~~~~~~~~~~~~~~~~~~~~~~~~~~~~~~~~~~~~~~~~~~~~~~~~~~~~~~~~~~~~~~~~~~~~~~~~~~~~~~~~~~~~~~~~~~~~~~~~~~~~~~~~~~~~~~-->

   <path d="m1180,700 h280 c 100 -5 180 -10 200 -150 h-200 c-10,30 -90,30 -100 0 h-180 z" id="rtop"/>
   <path d="m1180,530 v-190 h 390 l-20 45 c 80,30 110,100 110 145 h-200 c 0,-55 -10,-55 -100 -50 v 50 h-180z" id="rmid"/>
   <path d="m1180,320 h180 v-160 h-180z" id="rleftbottom"/>
   <path d="m1400,320 l70, -160 h 180 l -70,160z" id="rrightbottom"/>
   <!-- E (done)~~~~~~~~~~~~~~~~~~~~~~~~~~~~~~~~~~~~~~~~~~~~~~~~~~~~~~~~~~~~~~~~~~~~~~~~~~~~~~~~~~~~~~~~~~~~~~~~~~~~~~~~~~~~~~~~~~~~~~~~~~~~~-->
   <path d="m1700,700 h 450 v -150 h -450z" id="etop"/>
   <path d="m1700, 530 h 180 v-30 h 270 v-130 h-270 v-30 h-180z" id="emid"/>
   <path d="m1700,320 h 450 v -160 h -450z" id="ebottom"/>
   <!-- I (done!) ~~~~~~~~~~~~~~~~~~~~~~~~~~~~~~~~~~~~~~~~~~~~~~~~~~~~~~~~~~~~~~~~~~~~~~~~~~~~~~~~~~~~~~~~~~~~~~~~~~~~~~~~~~~~~~~~~~~~~~~~~~~~~-->
   <path d="m2200,700 h 190 v-150 h-190z" id="i2top"/>
   <path d="m2200,530 h 190 v-190 h-190z" id="i2mid"/>
   <path d="m2200,320 h 190 v-160 h-190z" id="12bottom"/>
   <!-- L1 (done)~~~~~~~~~~~~~~~~~~~~~~~~~~~~~~~~~~~~~~~~~~~~~~~~~~~~~~~~~~~~~~~~~~~~~~~~~~~~~~~~~~~~~~~~~~~~~~~~~~~~~~~~~~~~~~~~~~~~~~~~~~~~~-->
   <path d="m2450,700, h 190 v-150 h-190" id="l1top"/>
   <path d="m2450,530 h 190 v-190 h-190z" id="l1mid"/>
   <path d="m2450,320 h 330 v -160 h-330z" id="l1bottom"/>
   <!-- L2 (done!) ~~~~~~~~~~~~~~~~~~~~~~~~~~~~~~~~~~~~~~~~~~~~~~~~~~~~~~~~~~~~~~~~~~~~~~~~~~~~~~~~~~~~~~~~~~~~~~~~~~~~~~~~~~~~~~~~~~~~~~~~~~~~~-->
   <path d="m2820,700, h 190 v-150 h-190" id="l2top"/>
   <path d="m2820,530 h 190 v-190 h-190z" id="l2mid"/>
   <path d="m2820,320 h 330 v -160 h-330z" id="l2bottom"/>
   
   <!-- Y (done) ~~~~~~~~~~~~~~~~~~~~~~~~~~~~~~~~~~~~~~~~~~~~~~~~~~~~~~~~~~~~~~~~~~~~~~~~~~~~~~~~~~~~~~~~~~~~~~~~~~~~~~~~~~~~~~~~~~~~~~~~~~~~~-->
   <path d="m3070, 700 l94, -150 h 372 l 94, 150 h-200 l-80, -126 l-80,126z" id="ytop"/>
   <path d="m3178,530 h 344 l-82,-130 v-60 h-180 v60z" id="ymid"/>-->
   <path d="m3260,320 h 180 v-160 h-180z" id="ybottom"/>
  </g>
 </g>
</svg>